FFmpeg version SVN-r25716, Copyright (c) 2000-2010 the FFmpeg developers  built on Nov 10 2010 12:23:18 with gcc 4.1.2 20080704 (Red Hat 4.1.2-48)  configuration: --enable-libmp3lame --enable-shared --disable-mmx --arch=x86_64  libavutil     50.33. 0 / 50.33. 0  libavcore      0.12. 1 /  0.12. 1  libavcodec    52.94. 4 / 52.94. 4  libavformat   52.84. 0 / 52.84. 0  libavdevice   52. 2. 2 / 52. 2. 2  libavfilter    1.59. 0 /  1.59. 0  libswscale     0.12. 0 /  0.12. 0Seems stream 0 codec frame rate differs from container frame rate: 1200.00 (1200/1) -> 15.00 (15/1)Input #0, mov,mp4,m4a,3gp,3g2,mj2, from '/RAID10/data/converted_video_files/15796.mov':  Metadata:    major_brand     : qt      minor_version   : 537199360    compatible_brands: qt    Duration: 00:00:08.00, start: 0.000000, bitrate: 6411 kb/s    Stream #0.0(eng): Video: h264, yuv420p, 512x512, 6404 kb/s, 15 fps, 15 tbr, 600 tbn, 1200 tbc[buffer @ 0xccaf3c0] w:512 h:512 pixfmt:yuv420pOutput #0, flv, to '/RAID10/data/converted_video_files/15796.flv':  Metadata:    encoder         : Lavf52.84.0    Stream #0.0(eng): Video: flv, yuv420p, 512x512, q=2-31, 600 kb/s, 1k tbn, 24 tbcStream mapping:  Stream #0.0 -> #0.0Press [q] to stop encodingframe=   32 fps=  0 q=16.4 size=     435kB time=2.12 bitrate=1676.4kbits/s    frame=   66 fps= 64 q=14.4 size=     529kB time=4.38 bitrate= 991.2kbits/s    frame=  101 fps= 65 q=13.7 size=     649kB time=6.71 bitrate= 792.8kbits/s    frame=  120 fps= 65 q=13.4 Lsize=     713kB time=7.96 bitrate= 734.1kbits/s    video:711kB audio:0kB global headers:0kB muxing overhead 0.292510%